<?xml version="1.0" encoding="UTF-8" standalone="no"?>
<!-- Created with Inkscape (http://www.inkscape.org/) -->

<svg
   xmlns:osb="http://www.openswatchbook.org/uri/2009/osb"
   xmlns:dc="http://purl.org/dc/elements/1.1/"
   xmlns:cc="http://creativecommons.org/ns#"
   xmlns:rdf="http://www.w3.org/1999/02/22-rdf-syntax-ns#"
   xmlns:svg="http://www.w3.org/2000/svg"
   xmlns="http://www.w3.org/2000/svg"
   xmlns:sodipodi="http://sodipodi.sourceforge.net/DTD/sodipodi-0.dtd"
   xmlns:inkscape="http://www.inkscape.org/namespaces/inkscape"
   width="1464.3"
   height="962.09998"
   id="svg2"
   version="1.1"
   inkscape:version="0.48.2 r9819"
   sodipodi:docname="balloon-model.eps"
   style="enable-background:new"
   enable-background="new">
  <defs
     id="defs4">
    <marker
       inkscape:stockid="Arrow1Lend"
       orient="auto"
       refY="0.0"
       refX="0.0"
       id="Arrow1Lend"
       style="overflow:visible;">
      <path
         id="path3943"
         d="M 0.0,0.0 L 5.0,-5.0 L -12.5,0.0 L 5.0,5.0 L 0.0,0.0 z "
         style="fill-rule:evenodd;stroke:#000000;stroke-width:1.0pt;marker-start:none;"
         transform="scale(0.8) rotate(180) translate(12.5,0)" />
    </marker>
    <linearGradient
       id="linearGradient4687">
      <stop
         id="stop4697"
         offset="0"
         style="stop-color:#ff1410;stop-opacity:0.66666669;" />
      <stop
         style="stop-color:#ff0b10;stop-opacity:1;"
         offset="1"
         id="stop4691" />
    </linearGradient>
    <marker
       inkscape:stockid="Arrow2Lend"
       orient="auto"
       refY="0"
       refX="0"
       id="Arrow2Lend"
       style="overflow:visible">
      <path
         id="path3961"
         style="font-size:12px;fill-rule:evenodd;stroke-width:0.625;stroke-linejoin:round"
         d="M 8.7185878,4.0337352 -2.2072895,0.01601326 8.7185884,-4.0017078 c -1.7454984,2.3720609 -1.7354408,5.6174519 -6e-7,8.035443 z"
         transform="matrix(-1.1,0,0,-1.1,-1.1,0)"
         inkscape:connector-curvature="0" />
    </marker>
    <linearGradient
       id="linearGradient3847">
      <stop
         style="stop-color:#efc0af;stop-opacity:1;"
         offset="0"
         id="stop3849" />
      <stop
         style="stop-color:#efc0af;stop-opacity:1;"
         offset="1"
         id="stop3851" />
    </linearGradient>
    <linearGradient
       id="linearGradient3833"
       osb:paint="solid">
      <stop
         style="stop-color:#edc0af;stop-opacity:1;"
         offset="0"
         id="stop3835" />
    </linearGradient>
    <inkscape:perspective
       sodipodi:type="inkscape:persp3d"
       inkscape:vp_x="-777.85149 : 9.0634971e-14 : 0"
       inkscape:vp_y="0 : 1000 : 0"
       inkscape:vp_z="1523.7217 : 1007.931 : 1"
       inkscape:persp3d-origin="339.37669 : 247.13496 : 1"
       id="perspective2985" />
  </defs>
  <sodipodi:namedview
     id="base"
     pagecolor="#ffffff"
     bordercolor="#666666"
     borderopacity="1.0"
     inkscape:pageopacity="0.0"
     inkscape:pageshadow="2"
     inkscape:zoom="0.69977474"
     inkscape:cx="640.13006"
     inkscape:cy="429.7901"
     inkscape:document-units="px"
     inkscape:current-layer="layer1"
     showgrid="false"
     inkscape:window-width="1677"
     inkscape:window-height="949"
     inkscape:window-x="0"
     inkscape:window-y="0"
     inkscape:window-maximized="0"
     units="in" />
  <metadata
     id="metadata7">
    <rdf:RDF>
      <cc:Work
         rdf:about="">
        <dc:format>image/svg+xml</dc:format>
        <dc:type
           rdf:resource="http://purl.org/dc/dcmitype/StillImage" />
        <dc:title></dc:title>
      </cc:Work>
    </rdf:RDF>
  </metadata>
  <g
     inkscape:label="voxel"
     inkscape:groupmode="layer"
     id="layer1"
     style="display:inline"
     transform="translate(0,-90.259582)">
    <g
       sodipodi:type="inkscape:box3d"
       style="fill:#fad4af;fill-opacity:0.47555560000000002;fill-rule:nonzero;stroke:#000000;stroke-width:1.4;stroke-linecap:round;stroke-linejoin:round;stroke-miterlimit:4;stroke-opacity:1;stroke-dasharray:1.4,8.4;stroke-dashoffset:0.69999997"
       id="g2987"
       inkscape:perspectiveID="#perspective2985"
       inkscape:corner0="-0.098095104 : 0.30411007 : 0 : 1"
       inkscape:corner7="-0.77991281 : -0.098741165 : 0.19714384 : 1">
      <path
         sodipodi:type="inkscape:box3dside"
         id="path2997"
         style="fill:#fad4af;fill-opacity:0.47555560000000002;fill-rule:nonzero;stroke:#000000;stroke-width:1.4;stroke-miterlimit:4;stroke-opacity:1;stroke-dasharray:1.4,8.4;stroke-dashoffset:0.69999997"
         inkscape:box3dsidetype="13"
         d="m 415.68011,903.96576 530.35292,0 95.13287,-141.54729 -443.01517,0 z" />
      <path
         sodipodi:type="inkscape:box3dside"
         id="path2989"
         style="fill:#fad4af;fill-opacity:0.47555560000000002;fill-rule:nonzero;stroke:#000000;stroke-width:1.4;stroke-miterlimit:4;stroke-opacity:1;stroke-dasharray:1.4,8.4;stroke-dashoffset:0.69999997"
         inkscape:box3dsidetype="6"
         d="m 415.68011,501.11453 0,402.85123 182.47062,-141.54729 0,-336.5103 z" />
      <path
         sodipodi:type="inkscape:box3dside"
         id="path2999"
         style="fill:#fad4af;fill-opacity:0.47555560000000002;fill-rule:nonzero;stroke:#000000;stroke-width:1.4;stroke-miterlimit:4;stroke-opacity:1;stroke-dasharray:1.4,8.4;stroke-dashoffset:0.69999997"
         inkscape:box3dsidetype="11"
         d="m 598.15073,425.90817 443.01517,0 0,336.5103 -443.01517,0 z" />
      <path
         sodipodi:type="inkscape:box3dside"
         id="path2991"
         style="fill:#fad4af;fill-opacity:0.47555560000000002;fill-rule:nonzero;stroke:#000000;stroke-width:1.4;stroke-miterlimit:4;stroke-opacity:1;stroke-dasharray:1.4,8.4;stroke-dashoffset:0.69999997"
         inkscape:box3dsidetype="5"
         d="m 415.68011,501.11453 530.35292,0 95.13287,-75.20636 -443.01517,0 z" />
      <path
         sodipodi:type="inkscape:box3dside"
         id="path2995"
         style="fill:#fad4af;fill-opacity:0.47555560000000002;fill-rule:nonzero;stroke:#000000;stroke-width:1.4;stroke-miterlimit:4;stroke-opacity:1;stroke-dasharray:1.4,8.4;stroke-dashoffset:0.69999997"
         inkscape:box3dsidetype="14"
         d="m 946.03303,501.11453 0,402.85123 95.13287,-141.54729 0,-336.5103 z" />
      <path
         sodipodi:type="inkscape:box3dside"
         id="path2993"
         style="fill:#fad4af;fill-opacity:0.47555560000000002;fill-rule:nonzero;stroke:#000000;stroke-width:1.4;stroke-miterlimit:4;stroke-opacity:1;stroke-dasharray:1.4,8.4;stroke-dashoffset:0.69999997"
         inkscape:box3dsidetype="3"
         d="m 415.68011,501.11453 530.35292,0 0,402.85123 -530.35292,0 z" />
    </g>
  </g>
  <g
     inkscape:groupmode="layer"
     id="layer2"
     inkscape:label="balloon"
     style="opacity:0.85775865;display:none"
     transform="translate(0,-90.259582)">
    <path
       style="fill:#f60001;fill-opacity:1;fill-rule:nonzero;stroke:#000000;stroke-width:0;stroke-linecap:round;stroke-linejoin:round;stroke-miterlimit:4;stroke-opacity:1;stroke-dashoffset:0"
       d="m 899.465,685.56729 c -37.14581,40.96196 -59.96035,57.48313 -165.06378,57.48313 -105.10343,0 -157.99307,-26.83784 -158.29028,-64.65352 -0.1049,-13.34624 -4.67341,-43.72772 -6.80892,-59.74526 -1.6724,-12.54393 -18.8803,-91.52179 -26.41819,-117.87327 -4.6351,-16.20376 -34.49976,-105.45186 -28.27599,-99.50586 11.96017,11.42638 46.47606,106.01471 56.90722,153.0217 7.03811,31.71652 17.90108,94.58165 33.77992,110.43227 20.58358,20.547 63.68751,8.05403 117.22417,7.44399 68.81719,-0.78415 117.63157,-7.44478 141.80733,-16.64632 26.68704,-10.15735 36.65944,-30.77313 46.99507,-52.36012 5.29559,-11.06036 8.0288,-26.05906 17.00467,-79.83798 9.66106,-57.88426 22.49854,-139.12472 26.37975,-137.32256 9.09914,4.22502 -21.29883,205.77269 -25.30538,223.38584 -10.21802,44.91927 -25.63767,71.4385 -29.93559,76.17796 z"
       id="path3880"
       inkscape:connector-curvature="0"
       sodipodi:nodetypes="sssssssssssssss" />
  </g>
  <g
     inkscape:groupmode="layer"
     id="layer4"
     inkscape:label="balloon2"
     transform="translate(0,-90.259582)"
     style="display:none">
    <path
       style="fill:#ff0011;fill-opacity:1;fill-rule:nonzero;stroke:#000000;stroke-width:0;stroke-linecap:round;stroke-linejoin:round;stroke-miterlimit:4;stroke-opacity:1;stroke-dasharray:none;stroke-dashoffset:0"
       d="m 1064.8728,647.74485 c -0.3022,8.90519 -12.8206,0.56976 -50.2856,7.12005 -42.35507,7.40526 -116.35487,23.64541 -153.12241,28.62521 -65.48373,8.8691 -76.15226,26.25233 -123.15351,26.25233 -49.38471,0 -58.81399,-2.69552 -123.97681,-23.15766 -69.92953,-21.95896 -234.50429,-52.50951 -234.50429,-69.5318 0,-6.69528 37.0049,6.52974 60.23849,13.85699 30.19137,9.52153 144.08972,37.80511 177.91657,31.8774 38.60599,-6.76519 64.64907,-24.25008 119.09837,-24.25008 52.77408,0 54.75432,35.45 125.1834,33.85742 66.20363,-1.49704 203.14619,-40.57435 202.60579,-24.64986 z"
       id="path4660"
       inkscape:connector-curvature="0"
       sodipodi:nodetypes="sssssssssss" />
  </g>
  <g
     inkscape:groupmode="layer"
     id="layer6"
     inkscape:label="balloon2.1">
    <path
       style="fill:#fe0113;fill-opacity:0.90666670000000005;fill-rule:nonzero;stroke:#000000;stroke-width:0;stroke-linecap:round;stroke-linejoin:round;stroke-miterlimit:4;stroke-opacity:0.53333284999999997;stroke-dasharray:none;stroke-dashoffset:0;display:inline;enable-background:new;opacity:0.46982759"
       d="M 710.90399,618.72648 C 686.73567,617.44619 672.43682,614.43357 624.14168,599.38924 585.781,587.55512 562.52877,582.18459 516.15381,570.76893 l -13.91921,-3.38451 c 0,0 -3.0753,-1.83712 -2.48305,-5.07761 0.93013,-5.0893 5.58359,-4.83281 6.48905,-4.60685 0.49875,0.12449 5.34397,1.37635 9.999,2.39783 28.51974,6.46612 67.7026,12.44068 87.24705,13.27947 11.91902,0.51155 23.27623,-1.68172 52.88924,-10.69969 30.99872,-9.43996 44.5874,-12.26412 66.0033,-13.71757 8.52994,-0.57891 24.76671,-0.2499 29.65799,0.60096 12.90061,2.24413 20.23278,5.188 41.57098,16.69078 9.20936,4.96449 15.54083,7.77942 22.76187,10.11977 24.37399,7.89966 50.63099,7.90249 100.48404,0.0108 14.14295,-2.36865 28.81996,-5.2172 40.71517,-7.18554 13.74127,-2.61294 36.53838,-6.94077 41.02874,-7.74446 l 2.64192,-0.47286 c 0,0 -2.36267,1.31095 -2.30992,2.89606 0.0973,2.92397 2.61582,2.95834 2.75512,3.02635 -0.073,0.05 -2.17253,0.42595 -4.27179,0.84307 -8.54993,1.69889 -8.97378,1.67788 -17.47319,3.33944 -3.1051,0.60702 -6.68096,1.33044 -10.04571,1.99179 -28.6582,6.13986 -50.17936,9.91092 -81.85718,15.62661 -5.65253,1.00912 -16.26236,2.74157 -23.57741,3.84989 -31.29503,4.74161 -39.37162,6.66147 -73.35194,17.43626 -12.66526,4.01602 -16.68595,5.12358 -23.57741,6.49476 -10.88089,2.16497 -13.50214,2.36299 -32.64565,2.46627 -9.86422,0.0532 -20.65542,-0.0474 -23.98044,-0.22351 l 0,10e-6 z"
       id="path4717"
       inkscape:connector-curvature="0"
       sodipodi:nodetypes="ccccscccsssssccscscssccssssccc" />
    <path
       style="fill:#fe0009;fill-opacity:0.8711111;fill-rule:nonzero;stroke:#000000;stroke-width:0;stroke-linecap:round;stroke-linejoin:round;stroke-miterlimit:4;stroke-opacity:0.53333285;stroke-dasharray:none;stroke-dashoffset:0;display:inline;enable-background:new"
       d="m 415.84387,544.23778 c 0,0 -14.87815,-4.47273 -19.16151,-6.16847 -9.81687,-3.8864 -15.80799,-7.04015 -16.55546,-10.12929 -0.62154,-2.56867 1.51152,-2.5082 2.60826,-2.50701 4.27311,0.005 6.46883,1.77485 18.90043,5.51529 3.69413,1.11149 14.18461,4.10696 14.18461,4.10696 l 0.0237,9.18252 z"
       id="path4727"
       inkscape:connector-curvature="0"
       sodipodi:nodetypes="cssssccc" />
    <path
       style="opacity:0.63362068;fill:#fe0613;fill-opacity:0.88444441;fill-rule:nonzero;stroke:#000000;stroke-width:0;stroke-linecap:round;stroke-linejoin:round;stroke-miterlimit:4;stroke-opacity:0.53333285;stroke-dasharray:none;stroke-dashoffset:0;display:inline;enable-background:new"
       d="m 486.34269,563.12905 c -26.27565,-6.64581 -49.8195,-12.84871 -59.90604,-15.78295 l -10.67417,-3.10517 0,-5.45214 0,-3.61071 11.04245,2.85564 c 18.35076,4.74559 32.90859,9.13521 53.43823,13.84621 19.99559,4.58845 24.92102,5.68162 24.92102,5.68162 0,0 -2.36846,0.51766 -3.23126,1.27864 -2.0471,1.8055 -2.1085,5.16384 -1.2498,7.06164 0.79027,1.74656 2.71802,2.02453 2.71802,2.02453 0,0 -10.5886,-3.16092 -17.05845,-4.79731 z"
       id="path4729"
       inkscape:connector-curvature="0"
       sodipodi:nodetypes="sscccsscsscs" />
    <path
       style="fill:#fe0009;fill-opacity:0.8711111;fill-rule:nonzero;stroke:#000000;stroke-width:0;stroke-linecap:round;stroke-linejoin:round;stroke-miterlimit:4;stroke-opacity:0.53333285;stroke-dasharray:none;stroke-dashoffset:0;display:inline;enable-background:new"
       d="m 998.85775,564.58898 c -0.17369,-1.56339 0.68739,-3.23606 2.48155,-3.63227 3.5167,-0.78553 13.0631,-2.04248 27.941,-4.22751 24.9949,-3.67086 37.8529,-2.12568 34.7744,1.28246 -1.6763,1.85583 -1.6502,2.05374 -17.8862,2.07015 -9.7792,0.01 -19.9146,2.37936 -27.8602,3.63991 -8.2636,1.311 -14.3582,2.77848 -16.7755,3.19851 -1.61494,0.23056 -2.57993,-1.47507 -2.67505,-2.33125 z"
       id="path4731"
       inkscape:connector-curvature="0"
       sodipodi:nodetypes="scsscscs" />
  </g>
  <g
     inkscape:groupmode="layer"
     id="layer5"
     inkscape:label="mask" />
  <g
     inkscape:groupmode="layer"
     id="layer3"
     inkscape:label="labels"
     transform="translate(0,-90.259582)"
     style="display:inline">
    <path
       style="opacity:0.85775864999999996;fill:none;stroke:#000000;stroke-width:5;stroke-linecap:butt;stroke-linejoin:miter;stroke-miterlimit:4;stroke-opacity:1;stroke-dasharray:none;marker-end:url(#Arrow2Lend);display:inline"
       d="M 235.73762,579.53081 359.4531,611.26617"
       id="path3935"
       inkscape:connector-curvature="0"
       sodipodi:nodetypes="cc" />
    <path
       inkscape:connector-curvature="0"
       id="path4381"
       d="m 1091.6936,649.54538 110.5535,-0.35236"
       style="opacity:0.85775864999999984;fill:none;stroke:#000000;stroke-width:5;stroke-linecap:butt;stroke-linejoin:miter;stroke-miterlimit:4;stroke-opacity:1;stroke-dasharray:none;marker-end:url(#Arrow2Lend);display:inline"
       sodipodi:nodetypes="cc" />
    <flowRoot
       xml:space="preserve"
       id="flowRoot4738"
       style="font-size:40px;font-style:normal;font-variant:normal;font-weight:normal;font-stretch:normal;line-height:125%;letter-spacing:0px;word-spacing:0px;fill:#000000;fill-opacity:1;stroke:none;font-family:Sans;-inkscape-font-specification:Helvetica"
       transform="translate(0,90.259582)"><flowRegion
         id="flowRegion4740"><rect
           id="rect4742"
           width="257.44681"
           height="122.34042"
           x="73.404259"
           y="330.18509"
           style="font-style:normal;font-variant:normal;font-weight:normal;font-stretch:normal;font-family:Sans;-inkscape-font-specification:Helvetica" /></flowRegion><flowPara
         id="flowPara4744"
         style="font-style:normal;font-variant:normal;font-weight:normal;font-stretch:normal;font-family:Sans;-inkscape-font-specification:Helvetica" /></flowRoot>    <flowRoot
       xml:space="preserve"
       id="flowRoot4746"
       style="font-size:40px;font-style:normal;font-variant:normal;font-weight:normal;font-stretch:normal;line-height:125%;letter-spacing:0px;word-spacing:0px;fill:#000000;fill-opacity:1;stroke:none;font-family:Sans;-inkscape-font-specification:Helvetica"
       transform="translate(-20.212766,217.66237)"><flowRegion
         id="flowRegion4748"><rect
           id="rect4750"
           width="313.82977"
           height="96.80851"
           x="41.489361"
           y="299.33401"
           style="font-style:normal;font-variant:normal;font-weight:normal;font-stretch:normal;font-family:Sans;-inkscape-font-specification:Helvetica" /></flowRegion><flowPara
         id="flowPara4754"
         style="font-style:normal;font-variant:normal;font-weight:normal;font-stretch:normal;font-family:Sans;-inkscape-font-specification:Helvetica">Inflowing Blood</flowPara></flowRoot>    <flowRoot
       xml:space="preserve"
       id="flowRoot4758"
       style="font-size:40px;font-style:normal;font-weight:normal;line-height:125%;letter-spacing:0px;word-spacing:0px;fill:#000000;fill-opacity:1;stroke:none;font-family:Sans"
       transform="translate(0,90.259582)"><flowRegion
         id="flowRegion4760"><rect
           id="rect4762"
           width="355.31912"
           height="58.510651"
           x="1076.5957"
           y="465.29147" /></flowRegion><flowPara
         id="flowPara4764">Outflowing Blood</flowPara><flowPara
         id="flowPara4766" /></flowRoot>    <path
       style="fill:none;stroke:#000000;stroke-width:3;stroke-linecap:butt;stroke-linejoin:miter;stroke-opacity:1;stroke-miterlimit:4;stroke-dasharray:none"
       d="M 848.78049,437.70973 1003.6585,229.17315"
       id="path4768"
       inkscape:connector-curvature="0"
       transform="translate(0,90.259582)" />
    <path
       style="fill:none;stroke:#000000;stroke-width:3;stroke-linecap:butt;stroke-linejoin:miter;stroke-opacity:1;stroke-miterlimit:4;stroke-dasharray:none"
       d="M 695.12195,575.51461 468.29268,271.85607"
       id="path4770"
       inkscape:connector-curvature="0"
       transform="translate(0,90.259582)" />
    <flowRoot
       xml:space="preserve"
       id="flowRoot4772"
       style="font-size:40px;font-style:normal;font-weight:normal;line-height:125%;letter-spacing:0px;word-spacing:0px;fill:#000000;fill-opacity:1;stroke:none;font-family:Sans"
       transform="translate(-40.243902,119.52787)"><flowRegion
         id="flowRegion4774"><rect
           id="rect4776"
           width="478.0488"
           height="64.63414"
           x="291.46341"
           y="170.63657" /></flowRegion><flowPara
         id="flowPara4778">Ballooning vasculature</flowPara></flowRoot>    <flowRoot
       xml:space="preserve"
       id="flowRoot4780"
       style="font-size:40px;font-style:normal;font-weight:normal;line-height:125%;letter-spacing:0px;word-spacing:0px;fill:#000000;fill-opacity:1;stroke:none;font-family:Sans"
       transform="translate(45.121951,130.50348)"><flowRegion
         id="flowRegion4782"><rect
           id="rect4784"
           width="432.92682"
           height="98.780487"
           x="842.68292"
           y="123.07558" /></flowRegion><flowPara
         id="flowPara4786">Cortical Tissue</flowPara></flowRoot>  </g>
</svg>
