<?xml version="1.0" encoding="UTF-8" standalone="no"?>
<!-- Created with Inkscape (http://www.inkscape.org/) -->

<svg
   xmlns:dc="http://purl.org/dc/elements/1.1/"
   xmlns:cc="http://creativecommons.org/ns#"
   xmlns:rdf="http://www.w3.org/1999/02/22-rdf-syntax-ns#"
   xmlns:svg="http://www.w3.org/2000/svg"
   xmlns="http://www.w3.org/2000/svg"
   xmlns:sodipodi="http://sodipodi.sourceforge.net/DTD/sodipodi-0.dtd"
   xmlns:inkscape="http://www.inkscape.org/namespaces/inkscape"
   id="svg2"
   version="1.1"
   inkscape:version="0.48.2 r9819"
   width="950"
   height="440"
   xml:space="preserve"
   sodipodi:docname="github.eps"><metadata
     id="metadata8"><rdf:RDF><cc:Work
         rdf:about=""><dc:format>image/svg+xml</dc:format><dc:type
           rdf:resource="http://purl.org/dc/dcmitype/StillImage" /><dc:title></dc:title></cc:Work></rdf:RDF></metadata><defs
     id="defs6"><clipPath
       clipPathUnits="userSpaceOnUse"
       id="clipPath16"><path
         d="M 0,600 800,600 800,0 0,0 0,600 z"
         id="path18"
         inkscape:connector-curvature="0" /></clipPath><clipPath
       clipPathUnits="userSpaceOnUse"
       id="clipPath52"><path
         d="m 274.607,269.93 192.075,0 0,-20.984 -192.075,0 0,20.984 z"
         id="path54"
         inkscape:connector-curvature="0" /></clipPath></defs><sodipodi:namedview
     pagecolor="#ffffff"
     bordercolor="#666666"
     borderopacity="1"
     objecttolerance="10"
     gridtolerance="10"
     guidetolerance="10"
     inkscape:pageopacity="0"
     inkscape:pageshadow="2"
     inkscape:window-width="1036"
     inkscape:window-height="764"
     id="namedview4"
     showgrid="false"
     inkscape:zoom="0.73"
     inkscape:cx="423.10036"
     inkscape:cy="122.19598"
     inkscape:window-x="0"
     inkscape:window-y="0"
     inkscape:window-maximized="0"
     inkscape:current-layer="g14" /><g
     id="g10"
     inkscape:groupmode="layer"
     inkscape:label="github_logo_social_coding_outlined"
     transform="matrix(1.25,0,0,-1.25,0,440)"><g
       id="g12"
       transform="matrix(3.0934033,0,0,3.0934033,-689.8044,-756.89425)"><g
         id="g14"
         clip-path="url(#clipPath16)"><g
           id="g20"
           transform="translate(239.5605,309.2017)"><path
             d="m 0,0 c 0,-5.365 2.449,-8.048 7.348,-8.048 4.743,0 7.114,2.722 7.114,8.165 0,2.255 -0.544,4.198 -1.632,5.832 C 11.508,7.737 9.681,8.631 7.348,8.631 2.449,8.631 0,5.754 0,0 m 17.961,-44.788 c 0,3.966 -3.265,5.949 -9.797,5.949 -6.298,0 -9.447,-2.061 -9.447,-6.182 0,-4.043 3.421,-6.064 10.263,-6.064 5.988,0 8.981,2.098 8.981,6.297 m -0.466,61.35 c 3.732,0 8.047,0.933 12.946,2.799 l 0,-12.013 C 29.353,6.959 27.798,6.532 25.776,6.065 c 0.622,-1.788 0.933,-3.46 0.933,-5.015 0,-4.977 -1.497,-9.311 -4.49,-13.005 -2.994,-3.693 -6.863,-5.89 -11.606,-6.589 -3.11,-0.467 -4.665,-2.139 -4.665,-5.016 0,-1.011 0.506,-2.022 1.516,-3.032 1.322,-1.478 3.266,-2.411 5.832,-2.8 11.12,-1.71 16.679,-6.337 16.679,-13.879 0,-12.053 -7.193,-18.079 -21.578,-18.079 -5.909,0 -10.769,1.05 -14.579,3.149 -4.821,2.644 -7.231,6.804 -7.231,12.481 0,6.531 3.616,11.002 10.847,13.412 l 0,0.233 c -2.644,1.633 -3.966,4.121 -3.966,7.465 0,4.355 1.244,7.076 3.733,8.164 l 0,0.234 c -2.489,0.855 -4.705,2.799 -6.649,5.832 -2.177,3.265 -3.265,6.764 -3.265,10.497 0,5.598 1.983,10.263 5.948,13.996 3.81,3.499 8.359,5.248 13.646,5.248 3.81,0 7.348,-0.933 10.614,-2.799"
             style="fill:#000000;fill-opacity:1;fill-rule:evenodd;stroke:none"
             id="path22"
             inkscape:connector-curvature="0" /></g><g
           id="g24"
           transform="translate(282.3696,337.0776)"><path
             d="m 0,0 c -2.255,0 -4.179,0.855 -5.773,2.566 -1.594,1.71 -2.392,3.732 -2.392,6.065 0,2.411 0.798,4.471 2.392,6.182 1.594,1.71 3.518,2.565 5.773,2.565 2.177,0 4.063,-0.855 5.657,-2.565 C 7.251,13.102 8.048,11.042 8.048,8.631 8.048,6.298 7.251,4.276 5.657,2.566 4.063,0.855 2.177,0 0,0"
             style="fill:#000000;fill-opacity:1;fill-rule:evenodd;stroke:none"
             id="path26"
             inkscape:connector-curvature="0" /></g><g
           id="g28"
           transform="translate(275.7217,276.1943)"><path
             d="m 0,0 c 0.155,1.555 0.233,4.198 0.233,7.931 l 0,36.274 c 0,3.654 -0.078,6.181 -0.233,7.581 l 13.18,0 c -0.156,-1.478 -0.234,-3.927 -0.234,-7.348 l 0,-35.807 C 12.946,4.665 13.024,1.788 13.18,0 L 0,0 z"
             style="fill:#000000;fill-opacity:1;fill-rule:evenodd;stroke:none"
             id="path30"
             inkscape:connector-curvature="0" /></g><g
           id="g32"
           transform="translate(313.0356,327.98)"><path
             d="m 0,0 10.147,0 0,-11.313 c -0.389,0 -1.108,0.038 -2.158,0.116 -1.05,0.078 -2.041,0.117 -2.974,0.117 l -5.015,0 0,-21.694 c 0,-5.21 1.71,-7.814 5.132,-7.814 2.41,0 4.587,0.66 6.532,1.982 l 0,-11.663 c -2.877,-1.556 -6.338,-2.333 -10.381,-2.333 -5.677,0 -9.603,2.021 -11.78,6.064 -1.633,3.034 -2.45,7.815 -2.45,14.347 l 0,20.878 0.117,0 0,0.233 -1.75,0.116 c -1.01,0 -2.332,-0.116 -3.965,-0.349 l 0,11.313 5.715,0 0,4.549 c 0,2.177 -0.117,3.927 -0.35,5.248 l 13.53,0 C 0.117,8.32 0,6.648 0,4.782 L 0,0 z"
             style="fill:#000000;fill-opacity:1;fill-rule:evenodd;stroke:none"
             id="path34"
             inkscape:connector-curvature="0" /></g><g
           id="g36"
           transform="translate(354.0039,328.3301)"><path
             d="m 0,0 c -3.343,0 -6.842,-1.167 -10.497,-3.499 l 0,20.411 c 0,4.432 0.078,7.348 0.233,8.747 l -13.296,0 c 0.233,-1.244 0.35,-4.159 0.35,-8.747 l 0,-61.7 c 0,-3.576 -0.117,-6.026 -0.35,-7.348 l 13.53,0 c 0,0.234 -0.078,1.186 -0.234,2.858 -0.155,1.672 -0.233,3.169 -0.233,4.49 l 0,28.692 c 2.722,2.566 5.365,3.849 7.931,3.849 2.955,0 5.21,-1.477 6.765,-4.432 1.166,-2.333 1.75,-5.249 1.75,-8.748 L 5.832,-41.172 c 0,-2.644 -0.194,-6.299 -0.583,-10.964 l 14.112,0 c -0.31,1.944 -0.466,5.521 -0.466,10.731 l 0,15.978 c 0,6.765 -1.516,12.519 -4.549,17.262 C 10.925,-2.722 6.143,0 0,0"
             style="fill:#000000;fill-opacity:1;fill-rule:evenodd;stroke:none"
             id="path38"
             inkscape:connector-curvature="0" /></g><g
           id="g40"
           transform="translate(395.2974,275.7275)"><path
             d="m 0,0 c -6.143,0 -10.691,2.722 -13.646,8.165 -2.333,4.432 -3.5,10.225 -3.5,17.378 l 0,15.979 c 0,5.288 -0.155,8.864 -0.466,10.73 l 13.996,0 C -3.849,50.542 -4.004,46.887 -4.083,41.289 L -4.199,25.543 c 0,-4.432 0.506,-7.62 1.516,-9.564 1.167,-2.411 3.305,-3.616 6.415,-3.616 2.178,0 4.627,1.283 7.349,3.849 l 0,28.692 c 0,1.323 -0.079,2.839 -0.234,4.549 -0.156,1.711 -0.233,2.644 -0.233,2.799 l 13.529,0 C 23.988,50.931 23.91,48.481 23.91,44.904 l 0,-35.69 c 0,-4.587 0.078,-7.503 0.233,-8.747 l -12.713,0 0,4.198 C 7.853,1.556 4.043,0 0,0"
             style="fill:#000000;fill-opacity:1;fill-rule:evenodd;stroke:none"
             id="path42"
             inkscape:connector-curvature="0" /></g><g
           id="g44"
           transform="translate(446.0381,316.083)"><path
             d="m 0,0 c -2.566,0 -5.249,-1.283 -8.048,-3.849 l 0,-20.177 c 2.488,-2.411 4.938,-3.617 7.348,-3.617 3.032,0 5.326,1.672 6.882,5.016 1.244,2.644 1.866,5.793 1.866,9.447 C 8.048,-4.393 5.365,0 0,0 m 1.749,-40.238 c -4.198,0 -7.697,1.515 -10.497,4.548 l 0,-4.199 -12.363,0 c 0.233,1.322 0.35,3.772 0.35,7.348 l 0,61.7 c 0,4.588 -0.117,7.503 -0.35,8.747 l 13.297,0 c -0.157,-1.399 -0.234,-4.315 -0.234,-8.747 l 0,-20.295 c 3.576,2.255 7.076,3.383 10.497,3.383 6.143,0 10.964,-2.722 14.463,-8.164 2.954,-4.744 4.432,-10.498 4.432,-17.263 0,-6.92 -1.555,-12.946 -4.665,-18.078 -3.733,-5.987 -8.709,-8.98 -14.93,-8.98"
             style="fill:#000000;fill-opacity:1;fill-rule:evenodd;stroke:none"
             id="path46"
             inkscape:connector-curvature="0" /></g><g
           id="g48"><g
             id="g50" /><g
             id="g56"><g
               clip-path="url(#clipPath52)"
               id="g58"
               style="opacity:0.80000299"><g
                 transform="translate(284.8081,265.0146)"
                 id="g60"><path
                   d="m 0,0 c -0.74,1.004 -1.691,1.639 -2.986,1.639 -1.243,0 -2.431,-0.952 -2.431,-2.247 0,-3.357 7.901,-1.955 7.901,-8.642 0,-3.991 -2.484,-6.818 -6.554,-6.818 -2.748,0 -4.757,1.585 -6.131,3.884 l 2.511,2.458 c 0.528,-1.533 1.929,-2.907 3.594,-2.907 1.585,0 2.563,1.348 2.563,2.881 0,2.062 -1.903,2.643 -3.462,3.25 -2.564,1.058 -4.44,2.353 -4.44,5.444 0,3.304 2.458,5.973 5.814,5.973 1.771,0 4.229,-0.872 5.445,-2.22 L 0,0 z"
                   style="fill:#000000;fill-opacity:1;fill-rule:nonzero;stroke:none"
                   id="path62"
                   inkscape:connector-curvature="0" /></g><g
                 transform="translate(298.231,266.0977)"
                 id="g64"><path
                   d="m 0,0 c -3.673,0 -5.841,-3.25 -5.841,-6.475 0,-3.065 1.533,-6.844 5.841,-6.844 4.308,0 5.84,3.779 5.84,6.844 C 5.84,-3.25 3.673,0 0,0 m 0,-17.151 c -6.079,0 -9.858,4.651 -9.858,10.518 0,5.92 3.912,10.465 9.858,10.465 5.946,0 9.858,-4.545 9.858,-10.465 C 9.858,-12.5 6.079,-17.151 0,-17.151"
                   style="fill:#000000;fill-opacity:1;fill-rule:nonzero;stroke:none"
                   id="path66"
                   inkscape:connector-curvature="0" /></g><g
                 transform="translate(323.3076,264.1162)"
                 id="g68"><path
                   d="m 0,0 c -1.083,1.321 -2.722,2.114 -4.387,2.114 -3.727,0 -5.867,-3.435 -5.867,-6.872 0,-3.356 2.22,-6.712 5.84,-6.712 1.665,0 3.331,0.872 4.414,2.114 l 0,-4.624 c -1.454,-0.688 -2.907,-1.19 -4.52,-1.19 -5.602,0 -9.751,4.836 -9.751,10.333 0,5.656 3.99,10.65 9.831,10.65 1.559,0 3.092,-0.422 4.44,-1.162 L 0,0 z"
                   style="fill:#000000;fill-opacity:1;fill-rule:nonzero;stroke:none"
                   id="path70"
                   inkscape:connector-curvature="0" /></g><path
                 d="m 329.753,249.475 -3.885,0 0,19.927 3.885,0 0,-19.927 z"
                 style="fill:#000000;fill-opacity:1;fill-rule:nonzero;stroke:none"
                 id="path72"
                 inkscape:connector-curvature="0" /><g
                 transform="translate(340.0063,264.0898)"
                 id="g74"><path
                   d="m 0,0 -0.053,0 -2.194,-7.242 4.731,0 L 0,0 z m -3.356,-10.413 -1.639,-4.202 -4.096,0 7.77,20.455 3.012,0 7.559,-20.455 -4.149,0 -1.533,4.202 -6.924,0 z"
                   style="fill:#000000;fill-opacity:1;fill-rule:nonzero;stroke:none"
                   id="path76"
                   inkscape:connector-curvature="0" /></g><g
                 transform="translate(354.3271,252.8574)"
                 id="g78"><path
                   d="m 0,0 5.497,0 0,-3.383 -9.382,0 0,19.927 3.885,0 L 0,0 z"
                   style="fill:#000000;fill-opacity:1;fill-rule:nonzero;stroke:none"
                   id="path80"
                   inkscape:connector-curvature="0" /></g><g
                 transform="translate(382.0205,264.1162)"
                 id="g82"><path
                   d="m 0,0 c -1.083,1.321 -2.722,2.114 -4.387,2.114 -3.727,0 -5.867,-3.435 -5.867,-6.872 0,-3.356 2.22,-6.712 5.84,-6.712 1.665,0 3.331,0.872 4.414,2.114 l 0,-4.624 c -1.454,-0.688 -2.907,-1.19 -4.52,-1.19 -5.602,0 -9.751,4.836 -9.751,10.333 0,5.656 3.99,10.65 9.831,10.65 1.559,0 3.092,-0.422 4.44,-1.162 L 0,0 z"
                   style="fill:#000000;fill-opacity:1;fill-rule:nonzero;stroke:none"
                   id="path84"
                   inkscape:connector-curvature="0" /></g><g
                 transform="translate(393.4873,266.0977)"
                 id="g86"><path
                   d="m 0,0 c -3.674,0 -5.841,-3.25 -5.841,-6.475 0,-3.065 1.533,-6.844 5.841,-6.844 4.308,0 5.841,3.779 5.841,6.844 C 5.841,-3.25 3.673,0 0,0 m 0,-17.151 c -6.079,0 -9.858,4.651 -9.858,10.518 0,5.92 3.912,10.465 9.858,10.465 5.946,0 9.857,-4.545 9.857,-10.465 C 9.857,-12.5 6.078,-17.151 0,-17.151"
                   style="fill:#000000;fill-opacity:1;fill-rule:nonzero;stroke:none"
                   id="path88"
                   inkscape:connector-curvature="0" /></g><g
                 transform="translate(409.1299,252.8574)"
                 id="g90"><path
                   d="m 0,0 0.634,0 c 4.783,0 6.634,2.643 6.634,6.581 0,4.334 -2.22,6.58 -6.634,6.58 L 0,13.161 0,0 z m -3.886,16.544 5.551,0 c 5.761,0 9.619,-4.308 9.619,-9.989 0,-5.604 -3.964,-9.938 -9.646,-9.938 l -5.524,0 0,19.927 z"
                   style="fill:#000000;fill-opacity:1;fill-rule:nonzero;stroke:none"
                   id="path92"
                   inkscape:connector-curvature="0" /></g><path
                 d="m 426.199,249.475 -3.886,0 0,19.927 3.886,0 0,-19.927 z"
                 style="fill:#000000;fill-opacity:1;fill-rule:nonzero;stroke:none"
                 id="path94"
                 inkscape:connector-curvature="0" /><g
                 transform="translate(429.0244,269.9297)"
                 id="g96"><path
                   d="m 0,0 2.802,0 10.492,-13.928 0.053,0 0,13.4 3.884,0 0,-20.324 -2.8,0 -10.493,13.928 -0.052,0 0,-13.531 -3.886,0 L 0,0 z"
                   style="fill:#000000;fill-opacity:1;fill-rule:nonzero;stroke:none"
                   id="path98"
                   inkscape:connector-curvature="0" /></g><g
                 transform="translate(466.6816,260.0723)"
                 id="g100"><path
                   d="m 0,0 0,-0.502 c 0,-5.629 -2.881,-10.624 -9.064,-10.624 -5.815,0 -9.489,4.915 -9.489,10.412 0,5.683 3.78,10.571 9.726,10.571 3.383,0 6.343,-1.717 7.876,-4.756 l -3.436,-1.85 c -0.793,1.797 -2.484,3.171 -4.546,3.171 -3.753,0 -5.602,-3.832 -5.602,-7.136 0,-3.303 1.876,-6.976 5.629,-6.976 2.431,0 4.467,2.114 4.546,4.519 l -4.229,0 0,3.171 L 0,0 z"
                   style="fill:#000000;fill-opacity:1;fill-rule:nonzero;stroke:none"
                   id="path102"
                   inkscape:connector-curvature="0" /></g></g></g></g></g></g></g></svg>