<?xml version="1.0" encoding="UTF-8" standalone="no"?>
<!-- Created with Inkscape (http://www.inkscape.org/) -->

<svg
   xmlns:dc="http://purl.org/dc/elements/1.1/"
   xmlns:cc="http://creativecommons.org/ns#"
   xmlns:rdf="http://www.w3.org/1999/02/22-rdf-syntax-ns#"
   xmlns:svg="http://www.w3.org/2000/svg"
   xmlns="http://www.w3.org/2000/svg"
   xmlns:sodipodi="http://sodipodi.sourceforge.net/DTD/sodipodi-0.dtd"
   xmlns:inkscape="http://www.inkscape.org/namespaces/inkscape"
   id="svg2"
   version="1.1"
   inkscape:version="0.48.2 r9819"
   width="1403.75"
   height="628.75"
   xml:space="preserve"
   sodipodi:docname="AbsorptionData.eps"><metadata
     id="metadata8"><rdf:RDF><cc:Work
         rdf:about=""><dc:format>image/svg+xml</dc:format><dc:type
           rdf:resource="http://purl.org/dc/dcmitype/StillImage" /><dc:title></dc:title></cc:Work></rdf:RDF></metadata><defs
     id="defs6"><clipPath
       clipPathUnits="userSpaceOnUse"
       id="clipPath214"><path
         d="m 1460.83,4652.5 8711.67,0 0,-4100 -8711.67,0 0,4100 z"
         id="path216" /></clipPath><clipPath
       clipPathUnits="userSpaceOnUse"
       id="clipPath276"><path
         d="m 8564.17,4304.17 1260,0 0,-830 -1260,0 0,830 z"
         id="path278" /></clipPath><clipPath
       clipPathUnits="userSpaceOnUse"
       id="clipPath292"><path
         d="m 8564.17,4304.17 1260,0 0,-830 -1260,0 0,830 z"
         id="path294" /></clipPath><clipPath
       clipPathUnits="userSpaceOnUse"
       id="clipPath308"><path
         d="m 8564.17,4304.17 1260,0 0,-830 -1260,0 0,830 z"
         id="path310" /></clipPath></defs><sodipodi:namedview
     pagecolor="#ffffff"
     bordercolor="#666666"
     borderopacity="1"
     objecttolerance="10"
     gridtolerance="10"
     guidetolerance="10"
     inkscape:pageopacity="0"
     inkscape:pageshadow="2"
     inkscape:window-width="1491"
     inkscape:window-height="798"
     id="namedview4"
     showgrid="false"
     inkscape:zoom="1.1839488"
     inkscape:cx="822.65725"
     inkscape:cy="314.375"
     inkscape:window-x="0"
     inkscape:window-y="0"
     inkscape:window-maximized="0"
     inkscape:current-layer="g12" /><g
     id="g10"
     inkscape:groupmode="layer"
     inkscape:label="ink_ext_XXXXXX"
     transform="matrix(1.25,0,0,-1.25,0,628.75)"><g
       id="g12"
       transform="scale(0.1,0.1)"><path
         d="m 0,0 11230,0 0,5030 L 0,5030 0,0 z"
         style="fill:#ffffff;fill-opacity:1;fill-rule:nonzero;stroke:none"
         id="path14" /><path
         d="m 1460.83,553.332 8710.84,0 0,4099.17 -8710.84,0 0,-4099.17 z"
         style="fill:#ffffff;fill-opacity:1;fill-rule:evenodd;stroke:none"
         id="path16" /><path
         d="m 1460.83,553.332 0,4099.168 8710.87,0 0,-4099.168 -8710.87,0"
         style="fill:none;stroke:#ffffff;stroke-opacity:1;stroke-width:5;stroke-linecap:butt;stroke-linejoin:round;stroke-miterlimit:10;stroke-dasharray:none"
         id="path18" /><path
         d="m 1460.83,553.332 8710.87,0"
         style="fill:none;stroke:#000000;stroke-opacity:1;stroke-width:5;stroke-linecap:butt;stroke-linejoin:round;stroke-miterlimit:10;stroke-dasharray:none"
         id="path20" /><path
         d="m 1460.83,4652.5 8710.87,0"
         style="fill:none;stroke:#000000;stroke-opacity:1;stroke-width:5;stroke-linecap:butt;stroke-linejoin:round;stroke-miterlimit:10;stroke-dasharray:none"
         id="path22" /><path
         d="m 1460.83,553.332 0,4099.168"
         style="fill:none;stroke:#000000;stroke-opacity:1;stroke-width:5;stroke-linecap:butt;stroke-linejoin:round;stroke-miterlimit:10;stroke-dasharray:none"
         id="path24" /><path
         d="m 10171.7,553.332 0,4099.168"
         style="fill:none;stroke:#000000;stroke-opacity:1;stroke-width:5;stroke-linecap:butt;stroke-linejoin:round;stroke-miterlimit:10;stroke-dasharray:none"
         id="path26" /><path
         d="m 1460.83,553.332 8710.87,0"
         style="fill:none;stroke:#000000;stroke-opacity:1;stroke-width:5;stroke-linecap:butt;stroke-linejoin:round;stroke-miterlimit:10;stroke-dasharray:none"
         id="path28" /><path
         d="m 1460.83,553.332 0,4099.168"
         style="fill:none;stroke:#000000;stroke-opacity:1;stroke-width:5;stroke-linecap:butt;stroke-linejoin:round;stroke-miterlimit:10;stroke-dasharray:none"
         id="path30" /><path
         d="m 1460.83,553.332 0,87.5"
         style="fill:none;stroke:#000000;stroke-opacity:1;stroke-width:5;stroke-linecap:butt;stroke-linejoin:round;stroke-miterlimit:10;stroke-dasharray:none"
         id="path32" /><path
         d="m 1460.83,4652.5 0,-86.66"
         style="fill:none;stroke:#000000;stroke-opacity:1;stroke-width:5;stroke-linecap:butt;stroke-linejoin:round;stroke-miterlimit:10;stroke-dasharray:none"
         id="path34" /><g
         id="g36"
         transform="scale(10,10)"><text
           transform="matrix(1,0,0,-1,129.417,33.9168)"
           id="text38"><tspan
             style="fill:#000000;fill-opacity:1;fill-rule:nonzero;stroke:none;font-family:Helvetica;font-variant:normal;font-weight:normal;font-size:20;writing-mode:lr;-inkscape-font-specification:Helvetica"
             x="0 11.12 22.24"
             y="0"
             sodipodi:role="line"
             id="tspan40">600</tspan></text>
</g><path
         d="m 2331.67,553.332 0,87.5"
         style="fill:none;stroke:#000000;stroke-opacity:1;stroke-width:5;stroke-linecap:butt;stroke-linejoin:round;stroke-miterlimit:10;stroke-dasharray:none"
         id="path42" /><path
         d="m 2331.67,4652.5 0,-86.66"
         style="fill:none;stroke:#000000;stroke-opacity:1;stroke-width:5;stroke-linecap:butt;stroke-linejoin:round;stroke-miterlimit:10;stroke-dasharray:none"
         id="path44" /><g
         id="g46"
         transform="scale(10,10)"><text
           transform="matrix(1,0,0,-1,216.5,33.9168)"
           id="text48"><tspan
             style="fill:#000000;fill-opacity:1;fill-rule:nonzero;stroke:none;font-family:Helvetica;font-variant:normal;font-weight:normal;font-size:20;writing-mode:lr;-inkscape-font-specification:Helvetica"
             x="0 11.12 22.24"
             y="0"
             sodipodi:role="line"
             id="tspan50">650</tspan></text>
</g><path
         d="m 3202.5,553.332 0,87.5"
         style="fill:none;stroke:#000000;stroke-opacity:1;stroke-width:5;stroke-linecap:butt;stroke-linejoin:round;stroke-miterlimit:10;stroke-dasharray:none"
         id="path52" /><path
         d="m 3202.5,4652.5 0,-86.66"
         style="fill:none;stroke:#000000;stroke-opacity:1;stroke-width:5;stroke-linecap:butt;stroke-linejoin:round;stroke-miterlimit:10;stroke-dasharray:none"
         id="path54" /><g
         id="g56"
         transform="scale(10,10)"><text
           transform="matrix(1,0,0,-1,303.583,33.9168)"
           id="text58"><tspan
             style="fill:#000000;fill-opacity:1;fill-rule:nonzero;stroke:none;font-family:Helvetica;font-variant:normal;font-weight:normal;font-size:20;writing-mode:lr;-inkscape-font-specification:Helvetica"
             x="0 11.12 22.24"
             y="0"
             sodipodi:role="line"
             id="tspan60">700</tspan></text>
</g><path
         d="m 4073.33,553.332 0,87.5"
         style="fill:none;stroke:#000000;stroke-opacity:1;stroke-width:5;stroke-linecap:butt;stroke-linejoin:round;stroke-miterlimit:10;stroke-dasharray:none"
         id="path62" /><path
         d="m 4073.33,4652.5 0,-86.66"
         style="fill:none;stroke:#000000;stroke-opacity:1;stroke-width:5;stroke-linecap:butt;stroke-linejoin:round;stroke-miterlimit:10;stroke-dasharray:none"
         id="path64" /><g
         id="g66"
         transform="scale(10,10)"><text
           transform="matrix(1,0,0,-1,390.667,33.9168)"
           id="text68"><tspan
             style="fill:#000000;fill-opacity:1;fill-rule:nonzero;stroke:none;font-family:Helvetica;font-variant:normal;font-weight:normal;font-size:20;writing-mode:lr;-inkscape-font-specification:Helvetica"
             x="0 11.12 22.24"
             y="0"
             sodipodi:role="line"
             id="tspan70">750</tspan></text>
</g><path
         d="m 4945,553.332 0,87.5"
         style="fill:none;stroke:#000000;stroke-opacity:1;stroke-width:5;stroke-linecap:butt;stroke-linejoin:round;stroke-miterlimit:10;stroke-dasharray:none"
         id="path72" /><path
         d="m 4945,4652.5 0,-86.66"
         style="fill:none;stroke:#000000;stroke-opacity:1;stroke-width:5;stroke-linecap:butt;stroke-linejoin:round;stroke-miterlimit:10;stroke-dasharray:none"
         id="path74" /><g
         id="g76"
         transform="scale(10,10)"><text
           transform="matrix(1,0,0,-1,477.833,33.9168)"
           id="text78"><tspan
             style="fill:#000000;fill-opacity:1;fill-rule:nonzero;stroke:none;font-family:Helvetica;font-variant:normal;font-weight:normal;font-size:20;writing-mode:lr;-inkscape-font-specification:Helvetica"
             x="0 11.12 22.24"
             y="0"
             sodipodi:role="line"
             id="tspan80">800</tspan></text>
</g><path
         d="m 5815.83,553.332 0,87.5"
         style="fill:none;stroke:#000000;stroke-opacity:1;stroke-width:5;stroke-linecap:butt;stroke-linejoin:round;stroke-miterlimit:10;stroke-dasharray:none"
         id="path82" /><path
         d="m 5815.83,4652.5 0,-86.66"
         style="fill:none;stroke:#000000;stroke-opacity:1;stroke-width:5;stroke-linecap:butt;stroke-linejoin:round;stroke-miterlimit:10;stroke-dasharray:none"
         id="path84" /><g
         id="g86"
         transform="scale(10,10)"><text
           transform="matrix(1,0,0,-1,564.917,33.9168)"
           id="text88"><tspan
             style="fill:#000000;fill-opacity:1;fill-rule:nonzero;stroke:none;font-family:Helvetica;font-variant:normal;font-weight:normal;font-size:20;writing-mode:lr;-inkscape-font-specification:Helvetica"
             x="0 11.12 22.24"
             y="0"
             sodipodi:role="line"
             id="tspan90">850</tspan></text>
</g><path
         d="m 6686.67,553.332 0,87.5"
         style="fill:none;stroke:#000000;stroke-opacity:1;stroke-width:5;stroke-linecap:butt;stroke-linejoin:round;stroke-miterlimit:10;stroke-dasharray:none"
         id="path92" /><path
         d="m 6686.67,4652.5 0,-86.66"
         style="fill:none;stroke:#000000;stroke-opacity:1;stroke-width:5;stroke-linecap:butt;stroke-linejoin:round;stroke-miterlimit:10;stroke-dasharray:none"
         id="path94" /><g
         id="g96"
         transform="scale(10,10)"><text
           transform="matrix(1,0,0,-1,652,33.9168)"
           id="text98"><tspan
             style="fill:#000000;fill-opacity:1;fill-rule:nonzero;stroke:none;font-family:Helvetica;font-variant:normal;font-weight:normal;font-size:20;writing-mode:lr;-inkscape-font-specification:Helvetica"
             x="0 11.12 22.24"
             y="0"
             sodipodi:role="line"
             id="tspan100">900</tspan></text>
</g><path
         d="m 7558.33,553.332 0,87.5"
         style="fill:none;stroke:#000000;stroke-opacity:1;stroke-width:5;stroke-linecap:butt;stroke-linejoin:round;stroke-miterlimit:10;stroke-dasharray:none"
         id="path102" /><path
         d="m 7558.33,4652.5 0,-86.66"
         style="fill:none;stroke:#000000;stroke-opacity:1;stroke-width:5;stroke-linecap:butt;stroke-linejoin:round;stroke-miterlimit:10;stroke-dasharray:none"
         id="path104" /><g
         id="g106"
         transform="scale(10,10)"><text
           transform="matrix(1,0,0,-1,739.167,33.9168)"
           id="text108"><tspan
             style="fill:#000000;fill-opacity:1;fill-rule:nonzero;stroke:none;font-family:Helvetica;font-variant:normal;font-weight:normal;font-size:20;writing-mode:lr;-inkscape-font-specification:Helvetica"
             x="0 11.12 22.24"
             y="0"
             sodipodi:role="line"
             id="tspan110">950</tspan></text>
</g><path
         d="m 8429.17,553.332 0,87.5"
         style="fill:none;stroke:#000000;stroke-opacity:1;stroke-width:5;stroke-linecap:butt;stroke-linejoin:round;stroke-miterlimit:10;stroke-dasharray:none"
         id="path112" /><path
         d="m 8429.17,4652.5 0,-86.66"
         style="fill:none;stroke:#000000;stroke-opacity:1;stroke-width:5;stroke-linecap:butt;stroke-linejoin:round;stroke-miterlimit:10;stroke-dasharray:none"
         id="path114" /><g
         id="g116"
         transform="scale(10,10)"><text
           transform="matrix(1,0,0,-1,820.75,33.9168)"
           id="text118"><tspan
             style="fill:#000000;fill-opacity:1;fill-rule:nonzero;stroke:none;font-family:Helvetica;font-variant:normal;font-weight:normal;font-size:20;writing-mode:lr;-inkscape-font-specification:Helvetica"
             x="0 11.12 22.24 33.36"
             y="0"
             sodipodi:role="line"
             id="tspan120">1000</tspan></text>
</g><path
         d="m 9300,553.332 0,87.5"
         style="fill:none;stroke:#000000;stroke-opacity:1;stroke-width:5;stroke-linecap:butt;stroke-linejoin:round;stroke-miterlimit:10;stroke-dasharray:none"
         id="path122" /><path
         d="m 9300,4652.5 0,-86.66"
         style="fill:none;stroke:#000000;stroke-opacity:1;stroke-width:5;stroke-linecap:butt;stroke-linejoin:round;stroke-miterlimit:10;stroke-dasharray:none"
         id="path124" /><g
         id="g126"
         transform="scale(10,10)"><text
           transform="matrix(1,0,0,-1,907.834,33.9168)"
           id="text128"><tspan
             style="fill:#000000;fill-opacity:1;fill-rule:nonzero;stroke:none;font-family:Helvetica;font-variant:normal;font-weight:normal;font-size:20;writing-mode:lr;-inkscape-font-specification:Helvetica"
             x="0 11.12 22.24 33.36"
             y="0"
             sodipodi:role="line"
             id="tspan130">1050</tspan></text>
</g><path
         d="m 10171.7,553.332 0,87.5"
         style="fill:none;stroke:#000000;stroke-opacity:1;stroke-width:5;stroke-linecap:butt;stroke-linejoin:round;stroke-miterlimit:10;stroke-dasharray:none"
         id="path132" /><path
         d="m 10171.7,4652.5 0,-86.66"
         style="fill:none;stroke:#000000;stroke-opacity:1;stroke-width:5;stroke-linecap:butt;stroke-linejoin:round;stroke-miterlimit:10;stroke-dasharray:none"
         id="path134" /><g
         id="g136"
         transform="scale(10,10)"><text
           transform="matrix(1,0,0,-1,995,33.9168)"
           id="text138"><tspan
             style="fill:#000000;fill-opacity:1;fill-rule:nonzero;stroke:none;font-family:Helvetica;font-variant:normal;font-weight:normal;font-size:20;writing-mode:lr;-inkscape-font-specification:Helvetica"
             x="0 11.12 22.24 33.36"
             y="0"
             sodipodi:role="line"
             id="tspan140">1100</tspan></text>
</g><path
         d="m 1460.83,553.332 86.67,0"
         style="fill:none;stroke:#000000;stroke-opacity:1;stroke-width:5;stroke-linecap:butt;stroke-linejoin:round;stroke-miterlimit:10;stroke-dasharray:none"
         id="path142" /><path
         d="m 10171.7,553.332 -87.5,0"
         style="fill:none;stroke:#000000;stroke-opacity:1;stroke-width:5;stroke-linecap:butt;stroke-linejoin:round;stroke-miterlimit:10;stroke-dasharray:none"
         id="path144" /><g
         id="g146"
         transform="scale(10,10)"><text
           transform="matrix(1,0,0,-1,132.083,47.9168)"
           id="text148"><tspan
             style="fill:#000000;fill-opacity:1;fill-rule:nonzero;stroke:none;font-family:Helvetica;font-variant:normal;font-weight:normal;font-size:20;writing-mode:lr;-inkscape-font-specification:Helvetica"
             x="0"
             y="0"
             id="tspan150">0</tspan></text>
</g><path
         d="m 1460.83,1236.67 86.67,0"
         style="fill:none;stroke:#000000;stroke-opacity:1;stroke-width:5;stroke-linecap:butt;stroke-linejoin:round;stroke-miterlimit:10;stroke-dasharray:none"
         id="path152" /><path
         d="m 10171.7,1236.67 -87.5,0"
         style="fill:none;stroke:#000000;stroke-opacity:1;stroke-width:5;stroke-linecap:butt;stroke-linejoin:round;stroke-miterlimit:10;stroke-dasharray:none"
         id="path154" /><g
         id="g156"
         transform="scale(10,10)"><text
           transform="matrix(1,0,0,-1,104.25,116.25)"
           id="text158"><tspan
             style="fill:#000000;fill-opacity:1;fill-rule:nonzero;stroke:none;font-family:Helvetica;font-variant:normal;font-weight:normal;font-size:20;writing-mode:lr;-inkscape-font-specification:Helvetica"
             x="0 11.12 16.68 27.8"
             y="0"
             sodipodi:role="line"
             id="tspan160">0.05</tspan></text>
</g><path
         d="m 1460.83,1920 86.67,0"
         style="fill:none;stroke:#000000;stroke-opacity:1;stroke-width:5;stroke-linecap:butt;stroke-linejoin:round;stroke-miterlimit:10;stroke-dasharray:none"
         id="path162" /><path
         d="m 10171.7,1920 -87.5,0"
         style="fill:none;stroke:#000000;stroke-opacity:1;stroke-width:5;stroke-linecap:butt;stroke-linejoin:round;stroke-miterlimit:10;stroke-dasharray:none"
         id="path164" /><g
         id="g166"
         transform="scale(10,10)"><text
           transform="matrix(1,0,0,-1,115.417,184.583)"
           id="text168"><tspan
             style="fill:#000000;fill-opacity:1;fill-rule:nonzero;stroke:none;font-family:Helvetica;font-variant:normal;font-weight:normal;font-size:20;writing-mode:lr;-inkscape-font-specification:Helvetica"
             x="0 11.12 16.68"
             y="0"
             sodipodi:role="line"
             id="tspan170">0.1</tspan></text>
</g><path
         d="m 1460.83,2603.33 86.67,0"
         style="fill:none;stroke:#000000;stroke-opacity:1;stroke-width:5;stroke-linecap:butt;stroke-linejoin:round;stroke-miterlimit:10;stroke-dasharray:none"
         id="path172" /><path
         d="m 10171.7,2603.33 -87.5,0"
         style="fill:none;stroke:#000000;stroke-opacity:1;stroke-width:5;stroke-linecap:butt;stroke-linejoin:round;stroke-miterlimit:10;stroke-dasharray:none"
         id="path174" /><g
         id="g176"
         transform="scale(10,10)"><text
           transform="matrix(1,0,0,-1,104.25,252.917)"
           id="text178"><tspan
             style="fill:#000000;fill-opacity:1;fill-rule:nonzero;stroke:none;font-family:Helvetica;font-variant:normal;font-weight:normal;font-size:20;writing-mode:lr;-inkscape-font-specification:Helvetica"
             x="0 11.12 16.68 27.8"
             y="0"
             sodipodi:role="line"
             id="tspan180">0.15</tspan></text>
</g><path
         d="m 1460.83,3286.67 86.67,0"
         style="fill:none;stroke:#000000;stroke-opacity:1;stroke-width:5;stroke-linecap:butt;stroke-linejoin:round;stroke-miterlimit:10;stroke-dasharray:none"
         id="path182" /><path
         d="m 10171.7,3286.67 -87.5,0"
         style="fill:none;stroke:#000000;stroke-opacity:1;stroke-width:5;stroke-linecap:butt;stroke-linejoin:round;stroke-miterlimit:10;stroke-dasharray:none"
         id="path184" /><g
         id="g186"
         transform="scale(10,10)"><text
           transform="matrix(1,0,0,-1,115.417,321.25)"
           id="text188"><tspan
             style="fill:#000000;fill-opacity:1;fill-rule:nonzero;stroke:none;font-family:Helvetica;font-variant:normal;font-weight:normal;font-size:20;writing-mode:lr;-inkscape-font-specification:Helvetica"
             x="0 11.12 16.68"
             y="0"
             sodipodi:role="line"
             id="tspan190">0.2</tspan></text>
</g><path
         d="m 1460.83,3970 86.67,0"
         style="fill:none;stroke:#000000;stroke-opacity:1;stroke-width:5;stroke-linecap:butt;stroke-linejoin:round;stroke-miterlimit:10;stroke-dasharray:none"
         id="path192" /><path
         d="m 10171.7,3970 -87.5,0"
         style="fill:none;stroke:#000000;stroke-opacity:1;stroke-width:5;stroke-linecap:butt;stroke-linejoin:round;stroke-miterlimit:10;stroke-dasharray:none"
         id="path194" /><g
         id="g196"
         transform="scale(10,10)"><text
           transform="matrix(1,0,0,-1,104.25,389.583)"
           id="text198"><tspan
             style="fill:#000000;fill-opacity:1;fill-rule:nonzero;stroke:none;font-family:Helvetica;font-variant:normal;font-weight:normal;font-size:20;writing-mode:lr;-inkscape-font-specification:Helvetica"
             x="0 11.12 16.68 27.8"
             y="0"
             sodipodi:role="line"
             id="tspan200">0.25</tspan></text>
</g><path
         d="m 1460.83,553.332 8710.87,0"
         style="fill:none;stroke:#000000;stroke-opacity:1;stroke-width:5;stroke-linecap:butt;stroke-linejoin:round;stroke-miterlimit:10;stroke-dasharray:none"
         id="path202" /><path
         d="m 1460.83,4652.5 8710.87,0"
         style="fill:none;stroke:#000000;stroke-opacity:1;stroke-width:5;stroke-linecap:butt;stroke-linejoin:round;stroke-miterlimit:10;stroke-dasharray:none"
         id="path204" /><path
         d="m 1460.83,553.332 0,4099.168"
         style="fill:none;stroke:#000000;stroke-opacity:1;stroke-width:5;stroke-linecap:butt;stroke-linejoin:round;stroke-miterlimit:10;stroke-dasharray:none"
         id="path206" /><path
         d="m 10171.7,553.332 0,4099.168"
         style="fill:none;stroke:#000000;stroke-opacity:1;stroke-width:5;stroke-linecap:butt;stroke-linejoin:round;stroke-miterlimit:10;stroke-dasharray:none"
         id="path208" /><g
         id="g210"><g
           id="g212"
           clip-path="url(#clipPath214)"
           style="stroke-width:30;stroke-miterlimit:4;stroke-dasharray:none"><path
             d="m 1853.33,4647.5 10.84,-142.5 51.66,-160 41.67,-188.33 82.5,-188.34 72.5,-160 72.5,-148.33 93.33,-234.17 134.17,-199.16 103.33,-177.5 113.34,-228.34 93.33,-159.16 124.17,-200 L 2960,2250 l 103.33,-182.5 165,-182.5 114.17,-142.5 133.33,-91.67 103.34,-74.16 92.5,-50.84 124.16,-40 113.34,5.84 50.83,40 51.67,57.5 51.66,62.5 61.67,51.66 71.67,28.34 92.5,-11.67 72.5,-90.83 113.33,-120 82.5,-130.84 114.17,-109.16 102.5,-56.67 134.16,-28.33 195.84,-45.84 205.83,-10.83 257.5,-23.33 267.5,0.83 319.17,0 185.83,22.5 298.33,11.67 195.84,0.83 215.83,-5.83 134.17,-23.34 123.33,-34.16 175,-50.84 155,-68.33 267.5,-85.832 216.67,-85 216.66,-57.5 257.5,-56.668 421.67,-45 185.83,-11.668 L 9450,610 l 195.83,-16.668 278.34,-5.832 175.03,-5"
             style="fill:none;stroke:#0000ff;stroke-opacity:1;stroke-width:30;stroke-linecap:butt;stroke-linejoin:round;stroke-miterlimit:4;stroke-dasharray:none"
             id="path218" /><path
             d="m 1496.67,2957.5 41.66,-262.5 20.84,-183.33 10.83,-268.34 62.5,-302.5 41.67,-176.66 72.5,-170.84 72.5,-183.33 72.5,-108.33 123.33,-114.17 134.17,-96.67 103.33,-96.662 205.83,-63.336 175,-28.332 216.67,-16.668 215.83,-16.664 535.84,0 215.83,51.664 278.33,28.336 185,40 226.67,29.162 195,51.67 247.5,45.83 215.83,45.84 205.84,40 319.16,57.5 257.5,34.16 225.84,45.84 257.5,22.5 299.16,29.16 308.34,11.67 267.5,-22.5 247.5,-11.67 216.66,-22.5 225.84,-5.83 195.83,-28.33 257.5,-34.17 236.67,-28.33 268.33,-50.84 278.33,-68.33 257.5,-57.5 236.67,-68.33 257.5,-73.338 155,-40"
             style="fill:none;stroke:#008000;stroke-opacity:1;stroke-width:30;stroke-linecap:butt;stroke-linejoin:round;stroke-miterlimit:4;stroke-dasharray:none;stroke-dashoffset:0"
             id="path220" /><path
             d="m 1501.67,559.168 205.83,0.832 247.5,5.832 431.67,0 195.83,5.836 195.83,5.832 422.5,0 164.17,11.668 154.17,28.332 124.16,5.832 123.34,40 61.66,35 144.17,16.668 165,0 164.17,5.832 185.83,-10.832 205.83,0 71.67,-28.332 124.17,0 92.5,-17.5 205.83,-5 134.17,16.664 112.5,45.836 124.16,45.832 123.34,29.168 154.16,10.832 205.84,23.332 165,5.836 154.16,34.164 185,17.5 103.34,34.168 164.16,34.168 144.17,51.662 72.5,62.5 92.5,109.17 112.5,200 81.67,154.17 51.66,228.33 60.84,125 61.66,154.17 10,97.5 20.84,188.33 50.83,188.33 20,154.17 10,200 60.83,250.83 51.67,143.34 20,80 41.67,80 92.5,68.33 175,11.67 71.66,-23.34 30.84,-68.33 93.33,-68.33 30.83,-91.67 51.67,-79.17 61.67,-103.33 52.5,-108.33 71.66,-170.84 114.17,-211.66 82.5,-170.84 134.17,-228.33 83.33,-176.67 61.67,-131.66 113.33,-148.34 93.33,-125 103.34,-85.83 113.33,-85.83 123.33,-45.84 124.17,-5 133.33,16.67 82.5,45.83 82.5,51.67 71.67,74.17 40.8,57.5 92.5,56.66"
             style="fill:none;stroke:#ff0000;stroke-opacity:1;stroke-width:30;stroke-linecap:butt;stroke-linejoin:round;stroke-miterlimit:4;stroke-dasharray:none;stroke-dashoffset:0"
             id="path222" /></g></g><g
         id="g224"
         transform="scale(10,10)"><text
           transform="matrix(1,0,0,-1,506.25,14.6668)"
           id="text226"><tspan
             style="fill:#000000;fill-opacity:1;fill-rule:nonzero;stroke:none;font-family:Helvetica;font-variant:normal;font-weight:normal;font-size:20;writing-mode:lr;-inkscape-font-specification:Helvetica"
             x="0 18.88 30 40 51.12 55.56 66.68 77.8 88.92 94.48 105.6 111.16 117.82 128.94 145.6"
             y="0"
             sodipodi:role="line"
             id="tspan228">Wavelength (nm)</tspan></text>
<text
           transform="matrix(0,1,1,0,95.1668,131.083)"
           id="text230"><tspan
             style="fill:#000000;fill-opacity:1;fill-rule:nonzero;stroke:none;font-family:Helvetica;font-variant:normal;font-weight:normal;font-size:20;writing-mode:lr;-inkscape-font-specification:Helvetica"
             x="0 13.34 24.46 34.46 45.58 52.24 63.36 68.92 73.36 84.48 95.6 101.16 115.6 126.72 137.84 143.4 148.96 153.4 163.4 167.84 178.96 190.08 195.64 201.2 207.86 217.86"
             y="0"
             sodipodi:role="line"
             id="tspan232">Absorption Coefficient (cm</tspan></text>
<text
           transform="matrix(0,1,1,0,85.1668,366.167)"
           id="text234"><tspan
             style="fill:#000000;fill-opacity:1;fill-rule:nonzero;stroke:none;font-family:Helvetica;font-variant:normal;font-weight:normal;font-size:16;writing-mode:lr;-inkscape-font-specification:Helvetica"
             x="0 9.344"
             y="0"
             sodipodi:role="line"
             id="tspan236">−1</tspan></text>
<text
           transform="matrix(0,1,1,0,95.1668,384.3334)"
           id="text238"><tspan
             style="fill:#000000;fill-opacity:1;fill-rule:nonzero;stroke:none;font-family:Helvetica;font-variant:normal;font-weight:normal;font-size:20;writing-mode:lr;-inkscape-font-specification:Helvetica"
             x="0"
             y="0"
             id="tspan240">)</tspan></text>
</g><path
         d="m 8564.17,3475 1259.16,0 0,829.168 -1259.16,0 0,-829.168 z"
         style="fill:#ffffff;fill-opacity:1;fill-rule:evenodd;stroke:none"
         id="path242" /><path
         d="m 8564.17,3475 0,829.17 1259.16,0 0,-829.17 -1259.16,0"
         style="fill:none;stroke:#ffffff;stroke-opacity:1;stroke-width:5;stroke-linecap:butt;stroke-linejoin:round;stroke-miterlimit:10;stroke-dasharray:none"
         id="path244" /><path
         d="m 8564.17,3475 1259.17,0"
         style="fill:none;stroke:#000000;stroke-opacity:1;stroke-width:5;stroke-linecap:butt;stroke-linejoin:round;stroke-miterlimit:10;stroke-dasharray:none"
         id="path246" /><path
         d="m 8564.17,4304.17 1259.17,0"
         style="fill:none;stroke:#000000;stroke-opacity:1;stroke-width:5;stroke-linecap:butt;stroke-linejoin:round;stroke-miterlimit:10;stroke-dasharray:none"
         id="path248" /><path
         d="m 8564.17,3475 0,829.17"
         style="fill:none;stroke:#000000;stroke-opacity:1;stroke-width:5;stroke-linecap:butt;stroke-linejoin:round;stroke-miterlimit:10;stroke-dasharray:none"
         id="path250" /><path
         d="m 9823.34,3475 0,829.17"
         style="fill:none;stroke:#000000;stroke-opacity:1;stroke-width:5;stroke-linecap:butt;stroke-linejoin:round;stroke-miterlimit:10;stroke-dasharray:none"
         id="path252" /><path
         d="m 8564.17,3475 1259.17,0"
         style="fill:none;stroke:#000000;stroke-opacity:1;stroke-width:5;stroke-linecap:butt;stroke-linejoin:round;stroke-miterlimit:10;stroke-dasharray:none"
         id="path254" /><path
         d="m 8564.17,3475 0,829.17"
         style="fill:none;stroke:#000000;stroke-opacity:1;stroke-width:5;stroke-linecap:butt;stroke-linejoin:round;stroke-miterlimit:10;stroke-dasharray:none"
         id="path256" /><path
         d="m 8564.17,3475 1259.17,0"
         style="fill:none;stroke:#000000;stroke-opacity:1;stroke-width:5;stroke-linecap:butt;stroke-linejoin:round;stroke-miterlimit:10;stroke-dasharray:none"
         id="path258" /><path
         d="m 8564.17,4304.17 1259.17,0"
         style="fill:none;stroke:#000000;stroke-opacity:1;stroke-width:5;stroke-linecap:butt;stroke-linejoin:round;stroke-miterlimit:10;stroke-dasharray:none"
         id="path260" /><path
         d="m 8564.17,3475 0,829.17"
         style="fill:none;stroke:#000000;stroke-opacity:1;stroke-width:5;stroke-linecap:butt;stroke-linejoin:round;stroke-miterlimit:10;stroke-dasharray:none"
         id="path262" /><path
         d="m 9823.34,3475 0,829.17"
         style="fill:none;stroke:#000000;stroke-opacity:1;stroke-width:5;stroke-linecap:butt;stroke-linejoin:round;stroke-miterlimit:10;stroke-dasharray:none"
         id="path264" /><g
         id="g266"
         transform="scale(10,10)"><text
           transform="matrix(1,0,0,-1,895.417,408.333)"
           id="text268"><tspan
             style="fill:#000000;fill-opacity:1;fill-rule:nonzero;stroke:none;font-family:Helvetica;font-variant:normal;font-weight:normal;font-size:20;writing-mode:lr;-inkscape-font-specification:Helvetica"
             x="0 15.56 25.56 35.56 50"
             y="0"
             sodipodi:role="line"
             id="tspan270">OxyHb</tspan></text>
</g><g
         id="g272"><g
           id="g274"
           clip-path="url(#clipPath276)"><path
             d="m 8624.17,4155 300,0"
             style="fill:none;stroke:#0000ff;stroke-opacity:1;stroke-width:20;stroke-linecap:butt;stroke-linejoin:round;stroke-miterlimit:10;stroke-dasharray:none"
             id="path280" /></g></g><g
         id="g282"
         transform="scale(10,10)"><text
           transform="matrix(1,0,0,-1,895.417,381.833)"
           id="text284"><tspan
             style="fill:#000000;fill-opacity:1;fill-rule:nonzero;stroke:none;font-family:Helvetica;font-variant:normal;font-weight:normal;font-size:20;writing-mode:lr;-inkscape-font-specification:Helvetica"
             x="0 14.44 25.56 36.68 46.68 56.68 71.12"
             y="0"
             sodipodi:role="line"
             id="tspan286">DeoxyHb</tspan></text>
</g><g
         id="g288"
         style="stroke-width:30;stroke-miterlimit:4;stroke-dasharray:none"><g
           id="g290"
           clip-path="url(#clipPath292)"
           style="stroke-width:30;stroke-miterlimit:4;stroke-dasharray:none"><path
             d="m 8624.17,3890 300,0"
             style="fill:none;stroke:#008000;stroke-opacity:1;stroke-width:30;stroke-linecap:butt;stroke-linejoin:round;stroke-miterlimit:4;stroke-dasharray:none;stroke-dashoffset:0"
             id="path296" /></g></g><g
         id="g298"
         transform="scale(10,10)"><text
           transform="matrix(1,0,0,-1,895.417,355.333)"
           id="text300"><tspan
             style="fill:#000000;fill-opacity:1;fill-rule:nonzero;stroke:none;font-family:Helvetica;font-variant:normal;font-weight:normal;font-size:20;writing-mode:lr;-inkscape-font-specification:Helvetica"
             x="0 18.88 30 35.56 46.68"
             y="0"
             sodipodi:role="line"
             id="tspan302">Water</tspan></text>
</g><g
         id="g304"
         style="stroke-width:30;stroke-miterlimit:4;stroke-dasharray:none"><g
           id="g306"
           clip-path="url(#clipPath308)"
           style="stroke-width:30;stroke-miterlimit:4;stroke-dasharray:none"><path
             d="m 8624.17,3625 300,0"
             style="fill:none;stroke:#ff0000;stroke-opacity:1;stroke-width:30;stroke-linecap:butt;stroke-linejoin:round;stroke-miterlimit:4;stroke-dasharray:none;stroke-dashoffset:0"
             id="path312" /></g></g></g></g></svg>